<svg xmlns:xlink="http://www.w3.org/1999/xlink" fill="none" class="inline-block mr-2" viewBox="0 0 18 20" width="18" xmlns="http://www.w3.org/2000/svg" style="vertical-align: sub;" height="20" ><defs><linearGradient id="chrome-a" gradientUnits="userSpaceOnUse" x1="9.01769" x2="9.01769" y1="6.74065" y2="13.3394" fill="none"><stop offset="0" stop-color="#81b4e0" fill="none"></stop><stop offset="1" stop-color="#0c5a94" fill="none"></stop></linearGradient><linearGradient id="chrome-a" gradientUnits="userSpaceOnUse" x1="9.01769" x2="9.01769" y1="6.74065" y2="13.3394" fill="none"><stop offset="0" stop-color="#81b4e0" fill="none"></stop><stop offset="1" stop-color="#0c5a94" fill="none"></stop></linearGradient><linearGradient id="chrome-b" gradientUnits="userSpaceOnUse" x1="9.30352" x2="9.30352" y1="1.01099" y2="8.34249" fill="none"><stop offset="0" stop-color="#f06b59" fill="none"></stop><stop offset="1" stop-color="#df2227" fill="none"></stop></linearGradient><linearGradient id="chrome-c" gradientUnits="userSpaceOnUse" x1="2.19535" x2="5.90124" y1="16.448" y2="10.3252" fill="none"><stop offset="0" stop-color="#388b41" fill="none"></stop><stop offset="1" stop-color="#4cb749" fill="none"></stop></linearGradient><linearGradient id="chrome-d" gradientUnits="userSpaceOnUse" x1="14.61" x2="10.6624" y1="17.0993" y2="7.59275" fill="none"><stop offset="0" stop-color="#e4b022" fill="none"></stop><stop offset=".3" stop-color="#fcd209" fill="none"></stop></linearGradient><linearGradient id="chrome-f" gradientUnits="userSpaceOnUse" x1="3.42233" x2="3.42233" xlink:href="chrome-e" y1="11.0012" y2="4.55613" fill="none"></linearGradient><linearGradient id="chrome-g" gradientUnits="userSpaceOnUse" x1="12.3185" x2="7.88757" xlink:href="chrome-e" y1="13.0824" y2="17.5938" fill="none"></linearGradient></defs><linearGradient id="chrome-a" gradientUnits="userSpaceOnUse" x1="9.01769" x2="9.01769" y1="6.74065" y2="13.3394" fill="none"><stop offset="0" stop-color="#81b4e0" fill="none"></stop><stop offset="1" stop-color="#0c5a94" fill="none"></stop></linearGradient><linearGradient id="chrome-b" gradientUnits="userSpaceOnUse" x1="9.30352" x2="9.30352" y1="1.01099" y2="8.34249" fill="none"><stop offset="0" stop-color="#f06b59" fill="none"></stop><stop offset="1" stop-color="#df2227" fill="none"></stop></linearGradient><linearGradient id="chrome-c" gradientUnits="userSpaceOnUse" x1="2.19535" x2="5.90124" y1="16.448" y2="10.3252" fill="none"><stop offset="0" stop-color="#388b41" fill="none"></stop><stop offset="1" stop-color="#4cb749" fill="none"></stop></linearGradient><linearGradient id="chrome-d" gradientUnits="userSpaceOnUse" x1="14.61" x2="10.6624" y1="17.0993" y2="7.59275" fill="none"><stop offset="0" stop-color="#e4b022" fill="none"></stop><stop offset=".3" stop-color="#fcd209" fill="none"></stop></linearGradient><linearGradient id="chrome-e" fill="none"><stop offset="0" stop-opacity=".15" fill="none"></stop><stop offset=".3" stop-opacity=".06" fill="none"></stop><stop offset="1" stop-opacity=".03" fill="none"></stop></linearGradient><linearGradient id="chrome-f" gradientUnits="userSpaceOnUse" x1="3.42233" x2="3.42233" xlink:href="chrome-e" y1="11.0012" y2="4.55613" fill="none"></linearGradient><linearGradient id="chrome-g" gradientUnits="userSpaceOnUse" x1="12.3185" x2="7.88757" xlink:href="chrome-e" y1="13.0824" y2="17.5938" fill="none"></linearGradient><linearGradient id="chrome-h" gradientUnits="userSpaceOnUse" x1="12.2542" x2="12.8987" xlink:href="chrome-e" y1="14.3803" y2="8.01606" fill="none"></linearGradient><path d="m9.0216 18.8964c4.8944 0 8.8621-3.9677 8.8621-8.8621 0-4.89436-3.9677-8.86205-8.8621-8.86205-4.89439 0-8.862081 3.96769-8.862081 8.86205 0 4.8944 3.967691 8.8621 8.862081 8.8621z" fill="#FFFFFF"></path><path d="m14.6611 11.6456c0-3.11466-2.5249-5.63957-5.6395-5.63957-3.11465 0-5.63956 2.52491-5.63956 5.63957h1.61126c0-2.22481 1.8035-4.02831 4.0282-4.02831s4.0282 1.8035 4.0282 4.02831" fill="#000" fill-opacity="0.1"></path><path d="m9.42439 14.2237c1.69081 0 3.06151-1.3707 3.06151-3.0615 0-1.69077-1.3707-3.06144-3.06151-3.06144-1.6908 0-3.06146 1.37067-3.06146 3.06144 0 1.6908 1.37066 3.0615 3.06146 3.0615z" fill="#000" fill-opacity="0.1"></path><path d="m9.0216 13.3373c1.8243 0 3.3031-1.4788 3.3031-3.3031 0-1.82422-1.4788-3.30307-3.3031-3.30307-1.82425 0-3.30309 1.47885-3.30309 3.30307 0 1.8243 1.47884 3.3031 3.30309 3.3031z" fill="url(&quot;#chrome-a&quot;)"></path><path d="m17.078 6.00603c-2.218-4.4625-7.63362-6.282084-12.09623-4.06416-1.39147.69151-2.58075 1.73069-3.45262 3.01684l3.62541 6.28409c-.66758-2.12212.5115-4.38382 2.63362-5.05151.37325-.11736.76161-.17977 1.15284-.18526" fill="url(&quot;#chrome-b&quot;)"></path><path d="m1.52915 4.95882c-2.77479 4.13944-1.668681 9.74428 2.47055 12.51928 1.28068.8586 2.75999 1.3747 4.2968 1.499l3.7867-6.445c-1.416 1.7161-3.95463 1.9593-5.67068.5436-.58288-.4808-1.0188-1.1158-1.25796-1.8326" fill="url(&quot;#chrome-c&quot;)"></path><path d="m8.2965 18.977c4.9691.3756 9.302-3.3481 9.6778-8.3173.1213-1.60334-.1882-3.20998-.8964-4.65357h-8.13688c2.22448.01026 4.01988 1.82202 4.00958 4.04677-.0042.9001-.3096 1.7728-.8676 2.4791" fill="url(&quot;#chrome-d&quot;)"></path><path d="m1.52915 4.95882 3.62541 6.28408c-.26855-.9038-.21156-1.87315.16105-2.73925l-3.62541-3.78657" fill="url(&quot;#chrome-f&quot;)"></path><path d="m8.2965 18.977 3.7867-6.445c-.5975.7124-1.423 1.1962-2.3365 1.3695l-1.61136 5.0755" fill="url(&quot;#chrome-g&quot;)"></path><path d="m17.078 6.00603h-8.13698c.60506.00281 1.20168.14189 1.74568.4069.5439.26501 1.0211.64915 1.3963 1.12388l5.1561-1.28894" fill="url(#chrome-h)"></path></svg>